<svg width="35" height="40" viewBox="0 0 35 40" fill="none" xmlns="http://www.w3.org/2000/svg">
<path d="M34.1099 8.22944C33.9804 8.12537 33.8251 8.05849 33.6606 8.03598C33.496 8.01346 33.3285 8.03616 33.1758 8.10162L18.3113 14.5432C17.6651 14.825 16.8557 14.959 16.0247 14.959C14.866 14.9636 13.6673 14.6941 12.8318 14.3276C12.5772 14.2203 12.3347 14.0861 12.1086 13.9272C12.1701 13.8964 12.2471 13.8626 12.3317 13.8287L25.8513 7.97073L27.8671 8.8331V6.31221C27.8701 6.13244 27.8325 5.9543 27.7571 5.79111C27.6817 5.62792 27.5704 5.48388 27.4316 5.36977C27.3027 5.26581 27.1479 5.19898 26.9839 5.17646C26.8199 5.15394 26.6528 5.17658 26.5007 5.24195L11.6362 11.6835C11.1776 11.8683 10.7837 12.0962 10.4513 12.4273C10.0664 12.8073 9.84784 13.3246 9.8435 13.8656C9.8435 13.881 9.84811 13.9072 9.84811 13.9072V36.5906L9.84504 36.6214C9.84504 36.6275 9.84965 36.6306 9.84965 36.6368V36.6614H9.85273C9.88351 37.4545 10.2836 37.9596 10.6652 38.3168C11.8654 39.3763 13.8812 39.9692 16.0263 40C17.0419 40 18.0728 39.846 19.0269 39.4364L33.896 32.9933C34.2884 32.8239 34.5453 32.4035 34.5453 31.9276V9.17188C34.5477 8.99222 34.5098 8.8143 34.4345 8.65121C34.3591 8.48812 34.2482 8.344 34.1099 8.22944ZM24.6818 3.9176C24.6557 3.57881 24.5157 3.25542 24.2664 3.06139C24.1369 2.95732 23.9816 2.89045 23.8171 2.86793C23.6525 2.84542 23.485 2.86811 23.3323 2.93358L8.46784 9.37208C7.82156 9.65235 7.01063 9.78786 6.18123 9.78786C5.02254 9.79094 3.82384 9.52145 2.98829 9.15341C2.73341 9.04787 2.49088 8.91463 2.26507 8.7561C2.32662 8.7253 2.40356 8.69142 2.48819 8.65754L16.0093 2.7996L18.0251 3.66197V1.14416C18.0279 0.964285 17.99 0.786108 17.9143 0.622923C17.8387 0.459738 17.7271 0.315757 17.5881 0.201718C17.4589 0.0977797 17.3038 0.0309762 17.1396 0.0084612C16.9753 -0.0140538 16.808 0.00856764 16.6556 0.0739029L1.79113 6.51702C1.33257 6.70182 0.940187 6.92819 0.606275 7.26082C0.221954 7.64107 0.00393664 8.15829 0 8.69912C0 8.7176 0.00461597 8.74224 0.00461597 8.74224V31.498H0.00769402C0.0384694 32.291 0.438549 32.7961 0.820163 33.1534C2.0204 34.2129 4.03619 34.8042 6.18277 34.835C6.76571 34.8316 7.34679 34.7686 7.91696 34.6472V13.9057C7.90157 12.8277 8.33243 11.7929 9.0895 11.0475C9.61401 10.5384 10.2372 10.1422 10.9206 9.88334L24.6818 3.9176Z" fill="#2F6C65"/>
</svg>
